# xmcd CD database file
#
# Track frame offsets:
#	150
#	16726
#	34039
#	52643
#	69843
#	86599
#	104284
#	124090
#	157579
#	176281
#	194159
#	209142
#	228948
#	258149
#
# Disc length: 4228 seconds
#
# Revision: 34
# Processed by: cddbd v1.5.2PL0 Copyright (c) Steve Scherf et al.
# Submitted via: CDex 1.79
#
DISCID=a610820e
DTITLE=A-Ha - Set - Analogue (1 of 2)
DYEAR=2015
DGENRE=Pop
TTITLE0=Celice
TTITLE1=Don't Do Me Any Favours
TTITLE2=Cosy Prisons
TTITLE3=Analogue
TTITLE4=Birthright
TTITLE5=Holy Ground
TTITLE6=Over The Treetops
TTITLE7=Halfway Through The Tour
TTITLE8=A Fine Blue Line
TTITLE9=Keeper Of The Flame
TTITLE10=Make It Soon
TTITLE11=White Dwarf
TTITLE12=The Summers Of Our Youth
TTITLE13=DATA
EXTD=YEAR: 2015
EXTT0=
EXTT1=
EXTT2=
EXTT3=
EXTT4=
EXTT5=
EXTT6=
EXTT7=
EXTT8=
EXTT9=
EXTT10=
EXTT11=
EXTT12=
EXTT13=
PLAYORDER=
